{"title":"The Imaginarium of Doctor Parnassus 2009 720p BRRip x264 MP4 AAC","uid":10589601,"size":2729695835,"categoryP":"video","categoryS":"hd___movies","magnet":"?xt=urn:btih:2d245147c9d3a96c127300df4f711521d640be60&amp;dn=The+Imaginarium+of+Doctor+Parnassus+2009+720p+BRRip+x264+MP4+AAC&amp;tr=udp%3A%2F%2Ftracker.openbittorrent.com%3A80&amp;tr=udp%3A%2F%2Fopen.demonii.com%3A1337&amp;tr=udp%3A%2F%2Ftracker.coppersurfer.tk%3A6969&amp;tr=udp%3A%2F%2Fexodus.desync.com%3A6969","seeders":14,"leechers":8,"uploader":"Caveman44","files":-1,"time":1405785148,"description":" &lt;a href=&quot;http://www.imdb.com/title/tt1054606&quot; rel=&quot;nofollow&quot; target=&quot;_NEW&quot;&gt;http://www.imdb.com/title/tt1054606&lt;/a&gt;\n\nSource: The Imaginarium of Doctor Parnassus 720p BluRay x264-ALLiANCE Thanks!\n\nSubs: Arabic, Czech, Danish, Dutch, English, Finnish, French, Greek, Hebrew, Indonesian, Italian, Korean, Norwegian,Romanian, Servian, Slovenian, Swedish, Turkish, Vietnamese.\n\nSample and Screens included.\n\nGenera\nComplete name                            : The Imaginarium of Doctor Parnassus 2009 720p BRRip x264 MP4 AAC-CC.mp4\nFormat                                   : MPEG-4\nFormat profile                           : Base Media\nCodec ID                                 : isom\nFile size                                : 2.51 GiB\nDuration                                 : 2h 2mn\nOverall bit rate mode                    : Variable\nOverall bit rate                         : 2 930 Kbps\nEncoded date                             : UTC 2014-07-10 11:32:11\nTagged date                              : UTC 2014-07-10 11:32:11\nWriting application                      : Yamb 2.1.0.0 \n\nVideo\nID                                       : 1\nFormat                                   : AVC\nFormat/Info                              : Advanced Video Codec\nFormat profile                           : &lt;a class=&quot;__cf_email__&quot; href=&quot;/cdn-cgi/l/email-protection&quot; data-cfemail=&quot;125a7b757a525e263c23&quot;&gt;[email&amp;#160;protected]&lt;/a&gt;&lt;script cf-hash='f9e31' type=&quot;text/javascript&quot;&gt;\n/* &lt;![CDATA[ */!function(){try{var t=&quot;currentScript&quot;in document?document.currentScript:function(){for(var t=document.getElementsByTagName(&quot;script&quot;),e=t.length;e--;)if(t[e].getAttribute(&quot;cf-hash&quot;))return t[e]}();if(t&amp;&amp;t.previousSibling){var e,r,n,i,c=t.previousSibling,a=c.getAttribute(&quot;data-cfemail&quot;);if(a){for(e=&quot;&quot;,r=parseInt(a.substr(0,2),16),n=2;a.length-n;n+=2)i=parseInt(a.substr(n,2),16)^r,e+=String.fromCharCode(i);e=document.createTextNode(e),c.parentNode.replaceChild(e,c)}}}catch(u){}}();/* ]]&gt; */&lt;/script&gt;\nFormat settings, CABAC                   : Yes\nFormat settings, ReFrames                : 5 frames\nCodec ID                                 : avc1\nCodec ID/Info                            : Advanced Video Coding\nDuration                                 : 2h 2mn\nSource duration                          : 2h 2mn\nBit rate                                 : 2 601 Kbps\nMaximum bit rate                         : 35.7 Mbps\nWidth                                    : 1 280 pixels\nHeight                                   : 696 pixels\nDisplay aspect ratio                     : 1.85:1\nFrame rate mode                          : Variable\nFrame rate                               : 23.976 fps\nMinimum frame rate                       : 19.048 fps\nMaximum frame rate                       : 24.390 fps\nColor space                              : YUV\nChroma subsampling                       : 4:2:0\nBit depth                                : 8 bits\nScan type                                : Progressive\nBits/(Pixel*Frame)                       : 0.122\nStream size                              : 2.18 GiB (87%)\nWriting library                          : x264 core 112\nEncoding settings                        : cabac=1 / ref=5 / deblock=1:0:0 / analyse=0x3:0x113 / me=hex / subme=7 / psy=1 / psy_rd=1.00:0.00 / mixed_ref=1 / me_range=16 / chroma_me=1 / trellis=1 / 8x8dct=1 / cqm=0 / deadzone=21,11 / fast_pskip=1 / chroma_qp_offset=-2 / threads=3 / sliced_threads=0 / nr=0 / decimate=1 / interlaced=0 / constrained_intra=0 / bframes=5 / b_pyramid=2 / b_adapt=2 / b_bias=0 / direct=1 / weightb=1 / open_gop=0 / weightp=2 / keyint=240 / keyint_min=24 / scenecut=40 / intra_refresh=0 / rc_lookahead=50 / rc=abr / mbtree=1 / bitrate=2601 / ratetol=1.0 / qcomp=0.60 / qpmin=3 / qpmax=51 / qpstep=4 / ip_ratio=1.40 / aq=1:1.00\nEncoded date                             : UTC 2014-07-10 19:20:00\nTagged date                              : UTC 2014-07-10 11:36:43\nColor primaries                          : BT.709\nTransfer characteristics                 : BT.709\nMatrix coefficients                      : BT.709\n\nAudio\nID                                       : 2\nFormat                                   : AAC\nFormat/Info                              : Advanced Audio Codec\nFormat profile                           : LC\nCodec ID                                 : 40\nDuration                                 : 2h 2mn\nBit rate mode                            : Variable\nBit rate                                 : 384 Kbps\nMaximum bit rate                         : 625 Kbps\nChannel(s)                               : 6 channels\nChannel positions                        : Front: L C R, Side: L R, LFE\nSampling rate                            : 48.0 KHz\nCompression mode                         : Lossy\nDelay relative to video                  : 105ms\nStream size                              : 336 MiB (13%)\nEncoded date                             : UTC 2014-07-10 11:35:43\nTagged date                              : UTC 2014-07-10 11:36:43\n\nEnjoy...\n\nRequested by cmptrluvr's \n\nComing soon: AVP, Body of Lies, The Birdcage and many more.","torrent":{"xt":"urn:btih:2d245147c9d3a96c127300df4f711521d640be60","amp;dn":"The+Imaginarium+of+Doctor+Parnassus+2009+720p+BRRip+x264+MP4+AAC","amp;tr":["udp%3A%2F%2Ftracker.openbittorrent.com%3A80","udp%3A%2F%2Fopen.demonii.com%3A1337","udp%3A%2F%2Ftracker.coppersurfer.tk%3A6969","udp%3A%2F%2Fexodus.desync.com%3A6969"],"infoHash":"2d245147c9d3a96c127300df4f711521d640be60","infoHashBuffer":{"type":"Buffer","data":[45,36,81,71,201,211,169,108,18,115,0,223,79,113,21,33,214,64,190,96]},"announce":[],"urlList":[]}}